<svg version="1.1" id="Layer_1" xmlns="http://www.w3.org/2000/svg" xmlns:xlink="http://www.w3.org/1999/xlink" x="0px" y="0px"
	 width="100%" viewBox="0 0 369 94" enable-background="new 0 0 369 94" xml:space="preserve">
<path fill="#000000" opacity="1.000000" stroke="none" 
	d="
M370.000000,33.000000 
	C370.000000,53.642792 370.000000,74.285583 370.000000,95.000000 
	C264.645782,95.000000 159.291550,95.000000 53.169975,94.707535 
	C53.823307,92.288330 54.818913,89.615746 56.734241,88.124207 
	C68.404968,79.035736 80.682716,70.994553 95.170021,66.882240 
	C97.027985,66.354851 98.394341,64.095558 99.988434,62.638561 
	C98.711342,61.444576 97.434250,60.250591 96.034439,58.941872 
	C97.346245,56.984310 98.762489,54.870880 100.380180,52.456860 
	C98.670708,51.570965 97.249878,50.834656 95.709229,50.036247 
	C101.167740,45.336060 101.375740,44.937420 96.895477,42.599739 
	C93.992004,41.084778 94.012650,39.154331 93.965057,36.646320 
	C93.896744,33.046307 93.934875,29.390486 93.318985,25.864798 
	C91.510506,15.512129 84.481476,8.896121 76.420685,3.087970 
	C75.778862,2.625504 75.465836,1.706720 75.000000,0.999999 
	C173.333344,1.000000 271.666687,1.000000 370.000000,1.000000 
	C370.000000,8.416066 370.000000,15.739297 369.531342,23.531263 
	C356.504852,24.000000 343.947052,24.000000 331.196655,24.000000 
	C331.196655,27.115862 331.196655,29.842400 331.196655,33.000000 
	C344.230713,33.000000 357.115356,33.000000 370.000000,33.000000 
M200.069229,68.546013 
	C203.428970,74.393745 208.888550,71.199730 214.218079,72.134453 
	C209.794159,65.882835 205.827728,60.277721 201.889740,54.712814 
	C202.377090,54.176437 202.641251,53.632576 203.056793,53.465717 
	C211.297073,50.156944 212.886963,44.628906 211.884399,35.483391 
	C211.235153,29.560728 207.106964,25.400667 201.304245,25.006161 
	C191.673721,24.351416 181.966293,24.827936 172.238434,24.827936 
	C172.238434,26.890480 172.238434,29.293440 172.238434,32.000332 
	C179.435638,32.000332 186.402084,31.870647 193.361221,32.040157 
	C199.240372,32.183365 202.975891,35.421360 202.997742,39.948650 
	C203.018539,44.256844 199.179153,46.995316 193.101913,46.999222 
	C187.273392,47.002972 181.436172,46.832561 175.623230,47.133621 
	C174.371155,47.198471 172.205215,48.912556 172.162521,49.937824 
	C171.860336,57.195267 172.001816,64.471184 172.001816,71.744263 
	C175.587982,71.744263 178.658768,71.744263 182.109497,71.744263 
	C182.109497,66.412651 182.109497,61.324802 182.109497,56.287224 
	C191.346466,55.606373 191.333389,55.615383 196.210159,62.690414 
	C197.407654,64.427704 198.720886,66.085228 200.069229,68.546013 
M307.037140,38.354458 
	C308.205444,43.225048 305.607269,47.514977 300.873505,47.954033 
	C293.714050,48.618069 286.526672,48.981022 279.216644,49.481121 
	C279.216644,56.847961 279.216644,64.250237 279.216644,71.786285 
	C282.505066,71.786285 285.574402,71.786285 289.034546,71.786285 
	C289.034546,66.840065 289.034546,62.090347 289.034546,57.507000 
	C294.619843,56.979408 299.852966,56.800175 304.967041,55.925224 
	C311.944824,54.731411 316.439240,48.890335 317.069214,42.054314 
	C317.901398,33.024342 312.238922,25.847267 306.518677,25.164154 
	C297.453827,24.081625 288.263123,24.052843 279.331360,23.588900 
	C279.331360,27.058521 279.331360,29.466675 279.331360,32.000027 
	C285.310547,32.000027 290.978485,31.717539 296.602264,32.094437 
	C300.687561,32.368229 305.172821,32.658649 307.037140,38.354458 
M151.030899,36.638050 
	C154.805786,32.698101 158.580658,28.758150 162.381729,24.790876 
	C154.033203,22.172232 148.241730,24.763737 143.513504,30.876383 
	C141.292465,33.747726 138.436874,36.137836 135.800827,38.675358 
	C133.868286,40.535679 131.824951,42.280910 128.943497,44.877045 
	C128.943497,37.112186 128.943497,30.730272 128.943497,24.201172 
	C125.846947,24.201172 123.114059,24.201172 120.344711,24.201172 
	C120.344711,40.249832 120.344711,56.094856 120.344711,71.654770 
	C123.443398,71.654770 126.182793,71.654770 129.000000,71.654770 
	C129.000000,69.984390 129.192307,68.625229 128.965836,67.339859 
	C128.104294,62.450104 130.132431,59.058758 133.624374,55.699593 
	C139.682327,49.871971 145.216049,43.499374 151.030899,36.638050 
M251.000000,55.877373 
	C250.499100,54.236771 250.287384,52.427677 249.446777,50.985016 
	C245.978455,45.032562 242.334900,39.181713 238.726227,33.311680 
	C235.023422,27.288536 231.502350,20.908012 222.287323,24.628433 
	C223.828842,27.143234 225.424408,30.055954 227.309265,32.767570 
	C235.573196,44.656155 244.258652,56.368240 241.074661,72.243492 
	C241.055374,72.339706 241.281311,72.485115 241.571304,72.803772 
	C244.458359,72.803772 247.524612,72.803772 251.000000,72.803772 
	C251.000000,67.356789 251.000000,62.078674 251.000000,55.877373 
M355.000000,54.502083 
	C355.000000,49.398975 355.000000,44.295868 355.000000,39.285858 
	C351.690704,39.285858 348.951782,39.285858 346.281860,39.285858 
	C346.281860,50.316868 346.281860,61.059818 346.281860,71.713791 
	C349.309937,71.713791 352.048859,71.713791 355.000000,71.713791 
	C355.000000,66.119629 355.000000,60.809814 355.000000,54.502083 
M147.407700,51.941734 
	C146.031036,52.063663 144.182022,51.661694 143.362000,52.401020 
	C140.313385,55.149635 139.183456,57.479366 142.713135,61.742954 
	C147.931274,68.046066 151.978928,74.892662 162.195557,71.276871 
	C157.407516,64.961143 152.678558,58.723351 147.407700,51.941734 
M251.415436,35.066254 
	C248.286652,38.704823 249.023178,41.622505 252.266953,45.067814 
	C254.122910,47.039089 255.062363,46.424500 255.925613,45.108471 
	C260.391052,38.301003 264.669067,31.370623 269.180298,24.216936 
	C259.421967,23.701395 259.426178,23.704247 254.488495,31.007660 
	C253.675720,32.209858 252.807449,33.374527 251.415436,35.066254 
z"/>
<path fill="#FFFFFF" opacity="1.000000" stroke="none" 
	d="
M74.571533,0.999999 
	C75.465836,1.706720 75.778862,2.625504 76.420685,3.087970 
	C84.481476,8.896121 91.510506,15.512129 93.318985,25.864798 
	C93.934875,29.390486 93.896744,33.046307 93.965057,36.646320 
	C94.012650,39.154331 93.992004,41.084778 96.895477,42.599739 
	C101.375740,44.937420 101.167740,45.336060 95.709229,50.036247 
	C97.249878,50.834656 98.670708,51.570965 100.380180,52.456860 
	C98.762489,54.870880 97.346245,56.984310 96.034439,58.941872 
	C97.434250,60.250591 98.711342,61.444576 99.988434,62.638561 
	C98.394341,64.095558 97.027985,66.354851 95.170021,66.882240 
	C80.682716,70.994553 68.404968,79.035736 56.734241,88.124207 
	C54.818913,89.615746 53.823307,92.288330 52.701317,94.707535 
	C51.611111,95.000000 50.222221,95.000000 48.715103,94.708527 
	C46.096096,87.630142 39.787018,84.858002 34.501385,80.981148 
	C24.403410,73.574600 13.261738,68.545959 1.000000,66.000000 
	C1.000000,63.958332 1.000000,61.916668 1.270741,59.721588 
	C2.261436,58.844070 2.981389,58.119957 3.701343,57.395847 
	C2.800895,56.930565 1.900448,56.465282 1.000000,56.000000 
	C1.000000,51.975456 1.000000,47.950912 1.317924,43.768112 
	C5.850845,42.477093 7.718504,40.030579 7.101345,35.420830 
	C6.693902,32.377514 6.842849,29.119953 7.459116,26.104746 
	C9.561049,15.820623 16.338943,8.878664 24.594423,3.078995 
	C25.234095,2.629611 25.539326,1.704174 26.000000,1.000000 
	C27.714357,1.000000 29.428717,1.000000 31.571537,1.468657 
	C32.106571,12.516551 32.213146,23.095787 32.336460,35.336849 
	C44.875889,26.610495 56.186733,26.664717 68.871643,35.494877 
	C68.918320,22.950443 68.959160,11.975222 69.000000,1.000000 
	C70.714355,1.000000 72.428719,1.000000 74.571533,0.999999 
z"/>
<path fill="#000000" opacity="1.000000" stroke="none" 
	d="
M68.531342,1.000000 
	C68.959160,11.975222 68.918320,22.950443 68.871643,35.494877 
	C56.186733,26.664717 44.875889,26.610495 32.336460,35.336849 
	C32.213146,23.095787 32.106571,12.516551 32.000000,1.468657 
	C44.020893,1.000000 56.041790,1.000000 68.531342,1.000000 
z"/>
<path fill="#000000" opacity="1.000000" stroke="none" 
	d="
M1.000000,66.468658 
	C13.261738,68.545959 24.403410,73.574600 34.501385,80.981148 
	C39.787018,84.858002 46.096096,87.630142 48.298439,94.708527 
	C32.424076,95.000000 16.848156,95.000000 1.000000,95.000000 
	C1.000000,85.647530 1.000000,76.292419 1.000000,66.468658 
z"/>
<path fill="#000000" opacity="1.000000" stroke="none" 
	d="
M25.531321,1.000000 
	C25.539326,1.704174 25.234095,2.629611 24.594423,3.078995 
	C16.338943,8.878664 9.561049,15.820623 7.459116,26.104746 
	C6.842849,29.119953 6.693902,32.377514 7.101345,35.420830 
	C7.718504,40.030579 5.850845,42.477093 1.317924,43.304924 
	C1.000000,29.092077 1.000000,15.184153 1.000000,1.000000 
	C9.018772,1.000000 17.040707,1.000000 25.531321,1.000000 
z"/>
<path fill="#FFFFFF" opacity="1.000000" stroke="none" 
	d="
M370.000000,32.550018 
	C357.115356,33.000000 344.230713,33.000000 331.196655,33.000000 
	C331.196655,29.842400 331.196655,27.115862 331.196655,24.000000 
	C343.947052,24.000000 356.504852,24.000000 369.531342,24.000000 
	C370.000000,26.700014 370.000000,29.400026 370.000000,32.550018 
z"/>
<path fill="#000000" opacity="1.000000" stroke="none" 
	d="
M1.000000,56.375000 
	C1.900448,56.465282 2.800895,56.930565 3.701343,57.395847 
	C2.981389,58.119957 2.261436,58.844070 1.270741,59.284088 
	C1.000000,58.250000 1.000000,57.500000 1.000000,56.375000 
z"/>
<path fill="#FFFFFF" opacity="1.000000" stroke="none" 
	d="
M200.025055,68.162720 
	C198.720886,66.085228 197.407654,64.427704 196.210159,62.690414 
	C191.333389,55.615383 191.346466,55.606373 182.109497,56.287224 
	C182.109497,61.324802 182.109497,66.412651 182.109497,71.744263 
	C178.658768,71.744263 175.587982,71.744263 172.001816,71.744263 
	C172.001816,64.471184 171.860336,57.195267 172.162521,49.937824 
	C172.205215,48.912556 174.371155,47.198471 175.623230,47.133621 
	C181.436172,46.832561 187.273392,47.002972 193.101913,46.999222 
	C199.179153,46.995316 203.018539,44.256844 202.997742,39.948650 
	C202.975891,35.421360 199.240372,32.183365 193.361221,32.040157 
	C186.402084,31.870647 179.435638,32.000332 172.238434,32.000332 
	C172.238434,29.293440 172.238434,26.890480 172.238434,24.827936 
	C181.966293,24.827936 191.673721,24.351416 201.304245,25.006161 
	C207.106964,25.400667 211.235153,29.560728 211.884399,35.483391 
	C212.886963,44.628906 211.297073,50.156944 203.056793,53.465717 
	C202.641251,53.632576 202.377090,54.176437 201.889740,54.712814 
	C205.827728,60.277721 209.794159,65.882835 214.218079,72.134453 
	C208.888550,71.199730 203.428970,74.393745 200.025055,68.162720 
z"/>
<path fill="#FFFFFF" opacity="1.000000" stroke="none" 
	d="
M307.018860,37.961426 
	C305.172821,32.658649 300.687561,32.368229 296.602264,32.094437 
	C290.978485,31.717539 285.310547,32.000027 279.331360,32.000027 
	C279.331360,29.466675 279.331360,27.058521 279.331360,23.588900 
	C288.263123,24.052843 297.453827,24.081625 306.518677,25.164154 
	C312.238922,25.847267 317.901398,33.024342 317.069214,42.054314 
	C316.439240,48.890335 311.944824,54.731411 304.967041,55.925224 
	C299.852966,56.800175 294.619843,56.979408 289.034546,57.507000 
	C289.034546,62.090347 289.034546,66.840065 289.034546,71.786285 
	C285.574402,71.786285 282.505066,71.786285 279.216644,71.786285 
	C279.216644,64.250237 279.216644,56.847961 279.216644,49.481121 
	C286.526672,48.981022 293.714050,48.618069 300.873505,47.954033 
	C305.607269,47.514977 308.205444,43.225048 307.018860,37.961426 
z"/>
<path fill="#FFFFFF" opacity="1.000000" stroke="none" 
	d="
M151.000259,36.996681 
	C145.216049,43.499374 139.682327,49.871971 133.624374,55.699593 
	C130.132431,59.058758 128.104294,62.450104 128.965836,67.339859 
	C129.192307,68.625229 129.000000,69.984390 129.000000,71.654770 
	C126.182793,71.654770 123.443398,71.654770 120.344711,71.654770 
	C120.344711,56.094856 120.344711,40.249832 120.344711,24.201172 
	C123.114059,24.201172 125.846947,24.201172 128.943497,24.201172 
	C128.943497,30.730272 128.943497,37.112186 128.943497,44.877045 
	C131.824951,42.280910 133.868286,40.535679 135.800827,38.675358 
	C138.436874,36.137836 141.292465,33.747726 143.513504,30.876383 
	C148.241730,24.763737 154.033203,22.172232 162.381729,24.790876 
	C158.580658,28.758150 154.805786,32.698101 151.000259,36.996681 
z"/>
<path fill="#FFFFFF" opacity="1.000000" stroke="none" 
	d="
M251.000000,56.338966 
	C251.000000,62.078674 251.000000,67.356789 251.000000,72.803772 
	C247.524612,72.803772 244.458359,72.803772 241.571304,72.803772 
	C241.281311,72.485115 241.055374,72.339706 241.074661,72.243492 
	C244.258652,56.368240 235.573196,44.656155 227.309265,32.767570 
	C225.424408,30.055954 223.828842,27.143234 222.287323,24.628433 
	C231.502350,20.908012 235.023422,27.288536 238.726227,33.311680 
	C242.334900,39.181713 245.978455,45.032562 249.446777,50.985016 
	C250.287384,52.427677 250.499100,54.236771 251.000000,56.338966 
z"/>
<path fill="#FFFFFF" opacity="1.000000" stroke="none" 
	d="
M355.000000,55.001041 
	C355.000000,60.809814 355.000000,66.119629 355.000000,71.713791 
	C352.048859,71.713791 349.309937,71.713791 346.281860,71.713791 
	C346.281860,61.059818 346.281860,50.316868 346.281860,39.285858 
	C348.951782,39.285858 351.690704,39.285858 355.000000,39.285858 
	C355.000000,44.295868 355.000000,49.398975 355.000000,55.001041 
z"/>
<path fill="#FFFFFF" opacity="1.000000" stroke="none" 
	d="
M147.678650,52.213646 
	C152.678558,58.723351 157.407516,64.961143 162.195557,71.276871 
	C151.978928,74.892662 147.931274,68.046066 142.713135,61.742954 
	C139.183456,57.479366 140.313385,55.149635 143.362000,52.401020 
	C144.182022,51.661694 146.031036,52.063663 147.678650,52.213646 
z"/>
<path fill="#FFFFFF" opacity="1.000000" stroke="none" 
	d="
M251.690125,34.811394 
	C252.807449,33.374527 253.675720,32.209858 254.488495,31.007660 
	C259.426178,23.704247 259.421967,23.701395 269.180298,24.216936 
	C264.669067,31.370623 260.391052,38.301003 255.925613,45.108471 
	C255.062363,46.424500 254.122910,47.039089 252.266953,45.067814 
	C249.023178,41.622505 248.286652,38.704823 251.690125,34.811394 
z"/>
</svg>