<?xml version="1.0" encoding="utf-8"?>
<!-- Generator: Adobe Illustrator 26.0.3, SVG Export Plug-In . SVG Version: 6.00 Build 0)  -->
<svg version="1.0" id="katman_1" xmlns="http://www.w3.org/2000/svg" xmlns:xlink="http://www.w3.org/1999/xlink" x="0px" y="0px"
	 viewBox="0 0 600 450" style="enable-background:new 0 0 600 450;" xml:space="preserve">
<style type="text/css">
	.st0{fill:#28458E;}
	.st1{fill:#0695D4;}
	.st2{fill:#EC7B30;}
	.st3{fill:#00984A;}
	.st4{fill:#DF092D;}
</style>
<g>
	<path class="st0" d="M180.6,337.4h7.8c3.1,0,4.2,1.1,4.2,3.7c0,2.5-1.2,3.6-4.2,3.6h-7.8V337.4z M168.4,363.6h12.1v-10.7h13
		c8.6,0,11.7-5.1,11.7-11.7c0-7.6-3.2-12-11.8-12h-25L168.4,363.6z M209.2,329.3h32.6v8.4h-20.5v4.6h19v8.4h-19v4.6h20.5v8.4h-32.6
		V329.3z M259,337.4h7.8c3.1,0,4.2,1.1,4.2,3.7c0,2.5-1.2,3.6-4.2,3.6H259V337.4z M246.9,363.6H259v-10.7h13
		c8.6,0,11.7-5.1,11.7-11.7c0-7.6-3.2-12-11.8-12h-25V363.6z M295.4,349.1c-5.9-1-8.4-4.9-8.4-9.7c0-8.9,7.8-11.3,17.7-11.3
		c13.7,0,19.3,4,19.7,11.2h-14.1c0-1.4-0.7-2.3-1.8-2.7c-1.1-0.5-2.4-0.7-3.8-0.7c-3.6,0-4.9,1-4.9,2.4c0,1,0.4,1.6,1.6,1.8
		l14.5,2.4c6.1,1,9.9,4.2,9.9,10c0,8.4-6.1,12.3-19.7,12.3c-9.3,0-19.5-1.4-19.6-11.5h14.6c0,1.2,0.4,1.9,1.3,2.4
		c0.9,0.5,2.2,0.7,4.1,0.7c3.8,0,4.8-1.2,4.8-2.8c0-1-0.6-2-2.2-2.3L295.4,349.1z M329.9,329.3H342v34.3h-12.1V329.3z M386.9,350.3
		c-0.8,4.5-2.2,8.2-5.2,10.7c-3,2.5-7.6,3.9-15,3.9c-7.3,0-21-0.6-21-18.3c0-17.8,13.6-18.3,21-18.3c7.3,0,18.6,1.1,20.2,14.6h-13.7
		c-0.3-2.5-1.8-6-6.5-6c-4.9,0-8.1,2.7-8.1,9.7c0,7,3.1,9.7,7.5,9.7c3.8,0,6.1-1.8,7.1-5.9L386.9,350.3L386.9,350.3z M402.8,346.5
		c0-7,3.1-9.7,8.1-9.7c4.9,0,8.1,2.7,8.1,9.7c0,7-3.1,9.7-8.1,9.7C405.9,356.2,402.8,353.4,402.8,346.5z M389.9,346.5
		c0,17.8,13.6,18.3,21,18.3c7.3,0,21-0.6,21-18.3c0-17.8-13.6-18.3-21-18.3C403.5,328.1,389.9,328.7,389.9,346.5z"/>
	<g transform="translate(61.918917 18)">
		<path class="st0" d="M205.6,97.4c38.4,18.9,92.6,83.5,105.5,157.5c7-5.5,12.9-11.4,17.7-17.2l1,0.7c-13.4,23.3-46.8,54-96.1,54
			c-21.8,0-36.1-6-40.3-7.6l0.3-0.9c13.9,2.9,28.1,3.5,42.2,2c-39.4-14.5-69-60.5-69-120.8c0-33.7,12.5-54.5,16.9-61.1l0.5-0.7
			c0.3-0.4,0.5-0.8,0.7-1l0.9,0.3c-2,4.4-12.6,25.9-12.6,60.7c0,53.3,29.1,105.3,70.1,121.5c10.4-1.7,20.6-4.5,30.4-8.4
			c-42.7-40.9-77.7-124.8-78-174.2l1.1-0.3c10.9,50.9,44.9,131.1,81.3,172.7c10.4-4.5,20.3-10.1,29.4-16.9
			c-17.9-66.5-63.9-128.1-102.5-159.8L205.6,97.4z M210.9,89.7c71.2,0,125.8,66,125.8,118.1c-0.1,10.8-0.9,17.6-2.4,22.4l-1.2-0.3
			c2.9-61.5-50-130.8-122.3-139.3L210.9,89.7z"/>
		<path class="st1" d="M228.7,67.9c-37.4,0-81.2,27-81.2,51.7c0,9.6,8.7,17.6,26.8,17.6c41.9,0,80.9-28.8,80.9-51.3
			C255.2,74.2,243.9,67.9,228.7,67.9z M243.6,85.3c0,18.9-36.3,42-66.6,42c-13.4,0-20.6-5.3-20.6-14c0-19.2,36.7-41.9,65.1-41.9
			C240.1,71.4,243.6,80.9,243.6,85.3z"/>
		<path class="st2" d="M132.6,131.1c-1.1,1.8-5.3,10.1-5.3,18.5c0,15.7,15.8,30.2,44.9,30.2c56,0,120.7-41.3,120.7-79.6
			c0-17.2-16.3-26.5-27.5-28.5l-0.2,0.7c3.5,1.1,16.4,7.1,16.4,22.4c0,30.5-57.1,72.1-114,72.1c-21.8,0-35.5-10.8-35.5-26.4
			c0-5,1-8.2,1.3-9.2L132.6,131.1z"/>
		<path class="st3" d="M316,103.1c1.5,1.2,10.8,8.9,10.8,23.4c0,49.6-77.6,98.4-146.3,98.4c-40.9,0-59.6-20.2-58.8-38.2h0.7
			c1.6,9.3,14.9,26,50.7,26c68.7,0,145.5-50.5,145.5-94.7c0-7.6-2.1-12.3-3.2-14.4L316,103.1z"/>
		<path class="st4" d="M342,149.5c0.3,1.1,2,5.8,2,13.2c0,55.2-78.6,102.5-146.9,102.5c-35.2,0-53.5-17.1-57.4-24.1l0.6-0.5
			c9.7,8.5,28.9,15,51.3,15c60.4,0,150.4-46,149.6-106L342,149.5z"/>
	</g>
</g>
</svg>
