<svg xmlns="http://www.w3.org/2000/svg" x="0px" y="0px" width="100" height="100" viewBox="0 0 48 48">
<polygon fill="#1976d2" points="13,14 6,21 6,43 28,43 35,36 13,36"></polygon><linearGradient id="kw9e71-tYab9dR5CupF7wa_GsP9dpq9piub_gr1" x1="13" x2="43" y1="21" y2="21" gradientUnits="userSpaceOnUse"><stop offset="0" stop-color="#31abec"></stop><stop offset="1" stop-color="#1582d5"></stop></linearGradient><polygon fill="url(#kw9e71-tYab9dR5CupF7wa_GsP9dpq9piub_gr1)" points="21,6 13,14 35,14 35,36 43,28 43,6"></polygon><path fill="#1b8edf" d="M6,21v22h22V21H6z M21,36h-8v-8h8V36z"></path><polygon fill="#027ad4" points="35,14.145 43,6.145 43,6 21,6 21,14 35,14"></polygon><polygon fill="#0553a4" points="35,14 35,36 43,28 43,6"></polygon>
</svg>